<mxfile host="app.diagrams.net" agent="Mozilla/5.0 (Windows NT 10.0; Win64; x64) AppleWebKit/537.36 (KHTML, like Gecko) Chrome/131.0.0.0 Safari/537.36 Edg/131.0.0.0" version="26.0.4">
  <diagram name="Page-1" id="62x55YBBISGxxGsueqZT">
    <mxGraphModel dx="1426" dy="903" grid="1" gridSize="10" guides="1" tooltips="1" connect="1" arrows="1" fold="1" page="1" pageScale="1" pageWidth="850" pageHeight="1100" math="0" shadow="0">
      <root>
        <mxCell id="0" />
        <mxCell id="1" parent="0" />
        <mxCell id="-pR94dt-m6wY4UrUNz0--4" value="ERA" style="rounded=1;whiteSpace=wrap;html=1;" vertex="1" parent="1">
          <mxGeometry x="90" y="200" width="100" height="380" as="geometry" />
        </mxCell>
        <mxCell id="-pR94dt-m6wY4UrUNz0--5" value="Sebastian Andra" style="rounded=1;whiteSpace=wrap;html=1;" vertex="1" parent="1">
          <mxGeometry x="210" y="200" width="140" height="80" as="geometry" />
        </mxCell>
        <mxCell id="-pR94dt-m6wY4UrUNz0--6" value="Mihai Ilie" style="rounded=1;whiteSpace=wrap;html=1;" vertex="1" parent="1">
          <mxGeometry x="210" y="300" width="140" height="80" as="geometry" />
        </mxCell>
        <mxCell id="-pR94dt-m6wY4UrUNz0--7" value="Florea Andreea" style="rounded=1;whiteSpace=wrap;html=1;" vertex="1" parent="1">
          <mxGeometry x="210" y="400" width="140" height="80" as="geometry" />
        </mxCell>
        <mxCell id="-pR94dt-m6wY4UrUNz0--8" value="Szoke Roland" style="rounded=1;whiteSpace=wrap;html=1;" vertex="1" parent="1">
          <mxGeometry x="210" y="500" width="140" height="80" as="geometry" />
        </mxCell>
      </root>
    </mxGraphModel>
  </diagram>
</mxfile>
